<svg width="32" height="32" viewBox="0 0 32 32" fill="none" xmlns="http://www.w3.org/2000/svg">
<g id="Hide">
<g id="Hide_2">
<path id="Stroke 1" d="M8.55999 23.6397C5.58666 21.6931 3.66666 18.7597 3.66666 16.1864C3.66666 11.8131 9.18666 6.45306 16 6.45306C18.7867 6.45306 21.3733 7.3464 23.4533 8.73306" stroke="#303030" stroke-width="1.5" stroke-linecap="round" stroke-linejoin="round"/>
<path id="Stroke 3" d="M26.4663 11.4803C27.6543 12.9869 28.3463 14.6536 28.3463 16.1869C28.3463 20.5603 22.8129 25.9203 15.9996 25.9203C14.7863 25.9203 13.6009 25.7469 12.4929 25.4403" stroke="#303030" stroke-width="1.5" stroke-linecap="round" stroke-linejoin="round"/>
<path id="Stroke 5" d="M13.0209 19.156C12.2276 18.3707 11.7836 17.3 11.7876 16.184C11.7823 13.8573 13.6649 11.9667 15.9929 11.9627C17.1129 11.96 18.1876 12.404 18.9796 13.196" stroke="#303030" stroke-width="1.5" stroke-linecap="round" stroke-linejoin="round"/>
<path id="Stroke 7" d="M20.146 16.9321C19.834 18.6548 18.486 20.0055 16.7633 20.3215" stroke="#303030" stroke-width="1.5" stroke-linecap="round" stroke-linejoin="round"/>
<path id="Stroke 9" d="M26.5223 5.66653L5.49026 26.6985" stroke="#303030" stroke-width="1.5" stroke-linecap="round" stroke-linejoin="round"/>
</g>
</g>
</svg>
