<svg width="32" height="32" viewBox="0 0 32 32" fill="none" xmlns="http://www.w3.org/2000/svg">
<g id="Profile">
<g id="Profile_2">
<path id="Stroke 1" fill-rule="evenodd" clip-rule="evenodd" d="M15.7927 28.8826C10.8703 28.8826 6.66666 28.1166 6.66666 25.0489C6.66666 21.9811 10.8436 19.1492 15.7927 19.1492C20.7151 19.1492 24.9188 21.9537 24.9188 25.0214C24.9188 28.0879 20.7418 28.8826 15.7927 28.8826Z" stroke="#303030" stroke-width="1.5" stroke-linecap="round" stroke-linejoin="round"/>
<path id="Stroke 3" fill-rule="evenodd" clip-rule="evenodd" d="M15.7831 14.8982C19.0134 14.8982 21.6315 12.28 21.6315 9.0497C21.6315 5.8194 19.0134 3.2 15.7831 3.2C12.5528 3.2 9.93336 5.8194 9.93336 9.0497C9.92245 12.2691 12.5225 14.8873 15.7418 14.8982C15.7564 14.8982 15.7697 14.8982 15.7831 14.8982Z" stroke="#303030" stroke-width="1.5" stroke-linecap="round" stroke-linejoin="round"/>
</g>
</g>
</svg>
